<!-- Generated by IcoMoon.io -->
<svg version="1.1" xmlns="http://www.w3.org/2000/svg" width="32" height="32" viewBox="0 0 32 32">
<title>gear</title>
<path d="M31.993 16.007c-0.034-1.267-0.804-2.346-1.897-2.828l-0.020-0.008c-1.522-0.357-2.638-1.704-2.638-3.31 0-0.671 0.195-1.297 0.531-1.824l-0.008 0.014c0.155-0.354 0.245-0.766 0.245-1.199 0-1.688-1.369-3.057-3.057-3.057-0.433 0-0.846 0.090-1.219 0.253l0.020-0.008c-0.555 0.269-1.206 0.427-1.895 0.427-0.432 0-0.849-0.062-1.244-0.177l0.031 0.008c-0.935-0.522-1.646-1.352-2.003-2.35l-0.010-0.030c-0.469-1.13-1.563-1.91-2.839-1.91s-2.371 0.78-2.832 1.889l-0.007 0.020c-0.36 1.523-1.708 2.64-3.317 2.64-0.668 0-1.291-0.192-1.817-0.525l0.014 0.008c-0.354-0.155-0.766-0.245-1.199-0.245-1.688 0-3.057 1.369-3.057 3.057 0 0.433 0.090 0.846 0.253 1.219l-0.008-0.020c0.324 0.512 0.517 1.135 0.517 1.804 0 1.607-1.113 2.953-2.609 3.312l-0.023 0.005c-1.134 0.464-1.918 1.558-1.918 2.836s0.784 2.372 1.897 2.828l0.020 0.007c1.522 0.357 2.638 1.704 2.638 3.31 0 0.671-0.195 1.297-0.531 1.824l0.008-0.014c-0.155 0.354-0.245 0.766-0.245 1.199 0 1.688 1.369 3.057 3.057 3.057 0.433 0 0.846-0.090 1.219-0.253l-0.020 0.008c0.512-0.324 1.135-0.517 1.803-0.517 1.609 0 2.957 1.116 3.313 2.617l0.005 0.023c0.469 1.13 1.563 1.91 2.839 1.91s2.371-0.78 2.832-1.889l0.007-0.020c0.357-1.524 1.705-2.642 3.314-2.642 0.669 0 1.294 0.193 1.82 0.528l-0.014-0.008c0.354 0.155 0.766 0.245 1.199 0.245 1.688 0 3.057-1.369 3.057-3.057 0-0.433-0.090-0.846-0.253-1.219l0.008 0.020c-0.328-0.513-0.522-1.139-0.522-1.81 0-1.607 1.116-2.953 2.615-3.306l0.023-0.005c1.113-0.49 1.883-1.569 1.917-2.831l0-0.004zM15.985 21.877c-3.238-0.002-5.862-2.628-5.862-5.866 0-3.24 2.626-5.866 5.866-5.866s5.866 2.626 5.866 5.866c0 0.001 0 0.003 0 0.004v-0c0 0 0 0 0 0.001 0 3.237-2.624 5.862-5.862 5.862-0.003 0-0.006 0-0.009 0h0z"></path>
</svg>
