<!-- Generated by IcoMoon.io -->
<svg version="1.1" xmlns="http://www.w3.org/2000/svg" width="37" height="32" viewBox="0 0 37 32">
<title>logo</title>
<path d="M21.341 6.219h-6.1l3.050 5.335zM14.479 6.664l-3.050 5.335h6.1zM25.154 11.999l-3.050-5.335-3.050 5.335h6.1zM19.054 12.887l3.050 5.334 3.050-5.334h-6.1zM11.429 12.887l3.050 5.334 3.050-5.334h-6.1zM7.617 18.664h6.099l-3.049-5.333zM28.966 18.664l-3.049-5.333-3.049 5.333h6.095zM18.292-0.005l-3.050 5.335h6.1zM25.917 24.888l3.049-5.334h-6.095zM10.666 24.888l3.049-5.334h-6.099zM3.804 25.334h6.097l-3.049-5.335zM32.779 25.334l-3.050-5.335-3.052 5.335h6.1zM26.677 26.222l3.050 5.333 3.050-5.333h-6.1zM19.053 26.222l3.050 5.333 3.050-5.333h-6.098zM6.852 31.555l3.049-5.333h-6.096zM-0.009 32.002h6.095l-3.050-5.334zM15.24 32.002h6.1l-3.050-5.334zM22.866 32.002h6.095l-3.049-5.334zM33.54 26.668l-3.049 5.334h6.095z"></path>
</svg>
