<!-- Generated by IcoMoon.io -->
<svg version="1.1" xmlns="http://www.w3.org/2000/svg" width="32" height="32" viewBox="0 0 32 32">
<title>pencil</title>
<path d="M31.695 11.155c-0.194-0.193-0.461-0.313-0.756-0.313s-0.562 0.119-0.756 0.313l-9.311 9.306-13.090 5.769-2.017-2.017 5.767-13.092 9.309-9.306c0.194-0.194 0.314-0.461 0.314-0.756 0-0.591-0.479-1.069-1.069-1.069-0.295 0-0.562 0.12-0.756 0.313l-9.594 9.589-9.734 22.102 22.101-9.73 9.593-9.595c0.194-0.194 0.313-0.461 0.313-0.757s-0.119-0.563-0.313-0.756l0 0zM18.131 18.552c0.195 0.191 0.462 0.309 0.756 0.309s0.562-0.118 0.757-0.309l8.964-8.97c0.192-0.193 0.311-0.46 0.311-0.754 0-0.591-0.479-1.070-1.070-1.070-0.294 0-0.561 0.119-0.754 0.311l-8.961 8.97c-0.193 0.194-0.313 0.461-0.313 0.756s0.119 0.563 0.313 0.756l-0-0zM15.791 16.212c0.195 0.191 0.462 0.309 0.756 0.309s0.562-0.118 0.757-0.309l8.965-8.97c0.192-0.193 0.311-0.46 0.311-0.754 0-0.591-0.479-1.070-1.070-1.070-0.294 0-0.561 0.119-0.754 0.311l-8.965 8.963c-0.194 0.195-0.314 0.463-0.314 0.76s0.12 0.565 0.314 0.76l-0-0zM13.45 13.865c0.193 0.195 0.461 0.316 0.756 0.316s0.564-0.121 0.756-0.316l8.965-8.963c0.192-0.193 0.311-0.46 0.311-0.754 0-0.591-0.479-1.070-1.070-1.070-0.294 0-0.561 0.119-0.754 0.311l-8.965 8.963c-0.193 0.194-0.313 0.461-0.313 0.756s0.12 0.563 0.313 0.756l-0-0z"></path>
</svg>
