<!-- Generated by IcoMoon.io -->
<svg version="1.1" xmlns="http://www.w3.org/2000/svg" width="32" height="32" viewBox="0 0 32 32">
<title>search</title>
<path d="M31.68 30.241l-8.253-8.127c2.16-2.322 3.488-5.444 3.493-8.876v-0.001c0.001-0.066 0.002-0.143 0.002-0.221 0-7.437-6.029-13.467-13.467-13.467s-13.467 6.029-13.467 13.467c0 7.437 6.028 13.466 13.465 13.467h0c0.006 0 0.013 0 0.021 0 3.211 0 6.162-1.115 8.486-2.978l-0.027 0.021 8.28 8.159c0.189 0.184 0.448 0.298 0.733 0.298s0.544-0.114 0.734-0.298l-0 0c0.185-0.184 0.3-0.439 0.3-0.721s-0.115-0.537-0.3-0.721l-0-0zM13.453 24.444c-6.113-0.101-11.029-5.079-11.029-11.207 0-6.19 5.018-11.208 11.208-11.208s11.208 5.018 11.208 11.208v0c-0.053 6.202-5.093 11.208-11.302 11.208-0.030 0-0.059-0-0.089-0l0.005 0z"></path>
</svg>
