<!-- Generated by IcoMoon.io -->
<svg version="1.1" xmlns="http://www.w3.org/2000/svg" width="46" height="32" viewBox="0 0 46 32">
<title>suitcase</title>
<path d="M7.41 11.595c1.008-1.878 2.923-3.154 5.144-3.242l0.012-0h23.54v-1.491c-0.001-1.223-0.987-2.216-2.208-2.227h-9.719v-1.293c0-0.006 0-0.013 0-0.021 0-1.83-1.477-3.316-3.304-3.329h-5.65c-1.834 0.016-3.314 1.507-3.314 3.343 0 0.003 0 0.005 0 0.008v-0 1.293h-9.709c-1.222 0.008-2.209 1-2.209 2.223 0 0.002 0 0.003 0 0.005v-0 19.911zM14.118 3.341c0.001-0.308 0.124-0.587 0.324-0.791l-0 0c0.194-0.2 0.464-0.323 0.764-0.323 0.006 0 0.012 0 0.018 0h5.648c0.61 0.001 1.105 0.495 1.105 1.106 0 0.003 0 0.006-0 0.009v-0 1.293h-7.859v-1.293zM36.976 30.015c-0.64 1.14-1.811 1.916-3.169 1.993l-0.010 0h-31.704c-0.058 0.009-0.124 0.015-0.192 0.015-0.703 0-1.273-0.57-1.273-1.273 0-0.276 0.088-0.531 0.237-0.74l-0.003 0.004 8.523-17.441c0.642-1.138 1.812-1.913 3.169-1.993l0.011-0.001h31.704c0.058-0.009 0.124-0.015 0.192-0.015 0.703 0 1.273 0.57 1.273 1.273 0 0.276-0.088 0.531-0.237 0.74l0.003-0.004z"></path>
</svg>
